<?xml version="1.0" encoding="UTF-8" standalone="no"?>
<!-- Created with Inkscape (http://www.inkscape.org/) -->

<svg
   width="100mm"
   height="21mm"
   viewBox="0 0 100 21"
   version="1.1"
   id="svg1482"
   xmlns="http://www.w3.org/2000/svg"
   xmlns:svg="http://www.w3.org/2000/svg">
  <defs
     id="defs1479" />
  <g
     id="layer1">
    <g
       aria-label="VPKSoft"
       id="v-black"
       style="font-weight:bold;font-size:25.6566px;line-height:125%;font-family:'Segoe UI';-inkscape-font-specification:'Segoe UI Bold';letter-spacing:0px;word-spacing:0px;stroke-width:0.131733px"
       transform="matrix(1.001052,0,0,1.0278935,-3.91647,-2.9319567)">
      <path
         d="M 20.799609,4.180323 14.610956,22.144955 H 10.025841 L 3.912354,4.180323 h 4.3596178 l 3.7457632,12.502582 q 0.300664,1.014738 0.363302,1.791452 h 0.07517 q 0.08769,-0.839352 0.388356,-1.841563 L 16.565268,4.180323 Z"
         id="path31074"
         style="stroke-width:0.131733px" />
      <path
         d="m 27.00079,15.956302 v 6.188653 H 22.954363 V 4.180323 h 6.338984 q 6.78998,0 6.78998,5.7251302 0,2.7059698 -1.954312,4.3846728 -1.941783,1.666176 -5.198969,1.666176 z m 0,-8.669125 v 5.599854 h 1.59101 q 3.23213,0 3.23213,-2.831246 0,-2.768608 -3.23213,-2.768608 z"
         id="path31076"
         style="stroke-width:0.131733px" />
      <path
         d="m 53.647074,22.144955 h -5.111276 l -5.236552,-7.804718 q -0.150332,-0.225498 -0.47605,-0.989684 h -0.06264 v 8.794402 H 38.714131 V 4.180323 h 4.046426 v 8.493738 h 0.06264 q 0.150331,-0.350774 0.501105,-1.002211 l 4.960944,-7.491527 h 4.823141 l -6.263819,8.568904 z"
         id="path31078"
         style="stroke-width:0.131733px" />
      <path
         d="m 54.536538,21.455935 v -4.008844 q 1.089904,0.914517 2.367723,1.37804 1.277819,0.450995 2.580693,0.450995 0.764186,0 1.32793,-0.137804 0.576271,-0.137804 0.9521,-0.375829 0.388357,-0.250553 0.576271,-0.576272 0.187915,-0.338246 0.187915,-0.726603 0,-0.52616 -0.300663,-0.939572 -0.300664,-0.413412 -0.826824,-0.764186 -0.513633,-0.350774 -1.227709,-0.676493 -0.714075,-0.325718 -1.540899,-0.663964 -2.104643,-0.876935 -3.144437,-2.142226 -1.027266,-1.265292 -1.027266,-3.0567439 0,-1.4030954 0.563743,-2.4053063 0.563744,-1.0147386 1.528372,-1.6661758 0.977156,-0.6514371 2.254975,-0.9521004 1.277819,-0.3131909 2.705969,-0.3131909 1.403096,0 2.480473,0.1753869 1.089904,0.1628593 2.004422,0.5136331 V 8.3144432 Q 65.548331,8.0012523 65.009642,7.7632272 64.483481,7.5252021 63.919738,7.3748704 63.355994,7.2120112 62.79225,7.1368453 q -0.551216,-0.075166 -1.052321,-0.075166 -0.68902,0 -1.252764,0.137804 -0.563743,0.1252764 -0.9521,0.3633015 -0.388357,0.2380251 -0.601327,0.5762713 -0.21297,0.3257186 -0.21297,0.7391306 0,0.4509949 0.238025,0.8142964 0.238026,0.3507739 0.676493,0.6764929 0.438467,0.313191 1.064849,0.626382 0.626382,0.300663 1.415623,0.626381 1.077377,0.450995 1.929256,0.964629 0.864407,0.501105 1.478261,1.140014 0.613855,0.63891 0.939573,1.465734 0.325719,0.814296 0.325719,1.904201 0,1.503316 -0.576272,2.530583 -0.563743,1.014738 -1.540899,1.653648 -0.977156,0.626382 -2.28003,0.90199 -1.290347,0.275608 -2.731025,0.275608 -1.478261,0 -2.818718,-0.250553 -1.32793,-0.250553 -2.305085,-0.751658 z"
         id="path31080"
         style="stroke-width:0.131733px" />
      <path
         d="m 75.470217,22.458146 q -3.207075,0 -5.048638,-1.791453 -1.829035,-1.803979 -1.829035,-4.885778 0,-3.18202 1.904201,-4.973472 1.904201,-1.8039797 5.148859,-1.8039797 3.194547,0 5.011055,1.8039797 1.816507,1.791452 1.816507,4.747975 0,3.194547 -1.879145,5.048637 -1.866618,1.854091 -5.123804,1.854091 z m 0.100221,-10.422995 q -1.403095,0 -2.179809,0.964629 -0.776713,0.964628 -0.776713,2.731024 0,3.695653 2.981577,3.695653 2.843774,0 2.843774,-3.795874 0,-3.595432 -2.868829,-3.595432 z"
         id="path31082"
         style="stroke-width:0.131733px" />
      <path
         d="m 93.021437,6.1847449 q -0.764186,-0.3006633 -1.465733,-0.3006633 -1.904201,0 -1.904201,2.0670602 v 1.3655124 h 2.931467 v 2.9189398 h -2.931467 v 9.909361 H 85.705297 V 12.235594 H 83.550544 V 9.3166542 h 2.154753 V 7.7256443 q 0,-2.1923365 1.428151,-3.5327937 1.428151,-1.3404572 3.883567,-1.3404572 1.202654,0 2.004422,0.2505528 z"
         id="path31084"
         style="stroke-width:0.131733px" />
      <path
         d="m 102.73035,21.994623 q -0.87693,0.463523 -2.64333,0.463523 -4.18423,0 -4.18423,-4.34709 V 12.235594 H 93.823202 V 9.3166542 H 95.90279 V 6.5480464 L 99.848996,5.420559 v 3.8960952 h 2.881354 v 2.9189398 h -2.881354 v 5.186441 q 0,2.004422 1.591014,2.004422 0.62638,0 1.29034,-0.363301 z"
         id="path31086"
         style="stroke-width:0.131733px" />
    </g>
    <g
       aria-label="VPKSoft"
       id="v-color"
       style="font-weight:bold;font-size:25.6566px;line-height:125%;font-family:'Segoe UI';-inkscape-font-specification:'Segoe UI Bold';letter-spacing:0px;word-spacing:0px;fill:none;stroke:#000000;stroke-width:0.131733px"
       transform="matrix(1.001052,0,0,1.0278935,-3.91647,-2.9319567)">
      <path
         d="M 21.876521,5.0047019 15.687868,22.969334 H 11.102753 L 4.9892657,5.0047019 H 9.3488835 L 13.094647,17.507284 q 0.300663,1.014738 0.363301,1.791452 h 0.07517 q 0.08769,-0.839352 0.388357,-1.841563 L 17.642179,5.0047019 Z"
         style="fill:#0088cc;stroke:none;stroke-width:0.131733px"
         id="path29788" />
      <path
         d="m 28.077702,16.780681 v 6.188653 H 24.031275 V 5.0047019 h 6.338984 q 6.78998,0 6.78998,5.7251301 0,2.70597 -1.954312,4.384673 -1.941784,1.666176 -5.198969,1.666176 z m 0,-8.6691251 V 13.71141 h 1.591009 q 3.232131,0 3.232131,-2.831246 0,-2.7686081 -3.232131,-2.7686081 z"
         style="fill:#0088cc;stroke:none;stroke-width:0.131733px"
         id="path29790" />
      <path
         d="M 54.723986,22.969334 H 49.61271 l -5.236552,-7.804718 q -0.150332,-0.225498 -0.476051,-0.989684 h -0.06264 v 8.794402 H 39.791042 V 5.0047019 h 4.046427 V 13.49844 h 0.06264 q 0.150332,-0.350774 0.501106,-1.002211 l 4.960944,-7.4915271 h 4.82314 l -6.263818,8.5689041 z"
         style="fill:#0088cc;stroke:none;stroke-width:0.131733px"
         id="path29792" />
      <path
         d="M 55.613449,22.280314 V 18.27147 q 1.089905,0.914517 2.367724,1.37804 1.277819,0.450995 2.580693,0.450995 0.764186,0 1.327929,-0.137804 0.576272,-0.137804 0.952101,-0.375829 0.388357,-0.250553 0.576271,-0.576272 0.187915,-0.338246 0.187915,-0.726603 0,-0.52616 -0.300664,-0.939572 -0.300663,-0.413412 -0.826824,-0.764186 -0.513633,-0.350774 -1.227708,-0.676493 -0.714075,-0.325718 -1.540899,-0.663964 -2.104643,-0.876935 -3.144437,-2.142226 -1.027267,-1.265292 -1.027267,-3.056744 0,-1.4030953 0.563744,-2.4053063 0.563744,-1.0147386 1.528372,-1.6661757 0.977155,-0.6514371 2.254974,-0.9521004 1.277819,-0.313191 2.70597,-0.313191 1.403095,0 2.480472,0.175387 1.089905,0.1628592 2.004422,0.5136331 V 9.1388222 Q 66.625242,8.8256313 66.086554,8.5876062 65.560393,8.3495811 64.996649,8.1992494 64.432906,8.0363901 63.869162,7.9612243 q -0.551216,-0.075166 -1.052321,-0.075166 -0.68902,0 -1.252764,0.137804 -0.563744,0.1252764 -0.952101,0.3633015 -0.388356,0.2380251 -0.601326,0.5762713 -0.21297,0.3257185 -0.21297,0.7391306 0,0.4509953 0.238025,0.8142963 0.238025,0.350774 0.676493,0.676493 0.438467,0.313191 1.064849,0.626382 0.626382,0.300663 1.415623,0.626381 1.077376,0.450995 1.929256,0.964628 0.864407,0.501106 1.478261,1.140015 0.613854,0.63891 0.939573,1.465734 0.325718,0.814296 0.325718,1.904201 0,1.503316 -0.576271,2.530583 -0.563744,1.014738 -1.540899,1.653648 -0.977156,0.626382 -2.28003,0.90199 -1.290347,0.275608 -2.731025,0.275608 -1.478261,0 -2.818719,-0.250553 -1.327929,-0.250553 -2.305085,-0.751658 z"
         style="fill:#0088cc;stroke:none;stroke-width:0.131733px"
         id="path29794" />
      <path
         d="m 76.547129,23.282525 q -3.207075,0 -5.048638,-1.791453 -1.829035,-1.803979 -1.829035,-4.885778 0,-3.18202 1.904201,-4.973472 1.904201,-1.8039798 5.148859,-1.8039798 3.194547,0 5.011055,1.8039798 1.816507,1.791452 1.816507,4.747974 0,3.194548 -1.879146,5.048638 -1.866618,1.854091 -5.123803,1.854091 z M 76.64735,12.85953 q -1.403096,0 -2.179809,0.964629 -0.776714,0.964628 -0.776714,2.731024 0,3.695653 2.981578,3.695653 2.843774,0 2.843774,-3.795874 0,-3.595432 -2.868829,-3.595432 z"
         style="fill:#0088cc;stroke:none;stroke-width:0.131733px"
         id="path29796" />
      <path
         d="m 94.098349,7.0091239 q -0.764186,-0.3006633 -1.465734,-0.3006633 -1.9042,0 -1.9042,2.0670601 v 1.3655123 h 2.931467 v 2.91894 h -2.931467 v 9.909361 h -3.946206 v -9.909361 h -2.154754 v -2.91894 h 2.154754 V 8.5500233 q 0,-2.1923366 1.428151,-3.5327937 1.42815,-1.3404572 3.883567,-1.3404572 1.202653,0 2.004422,0.2505527 z"
         style="fill:#0088cc;stroke:none;stroke-width:0.131733px"
         id="path29798" />
      <path
         d="m 103.80726,22.819002 q -0.87693,0.463523 -2.64333,0.463523 -4.184228,0 -4.184228,-4.347091 v -5.875461 h -2.079588 v -2.91894 h 2.079588 V 7.3724254 L 100.92591,6.244938 v 3.896095 h 2.88135 v 2.91894 h -2.88135 v 5.186441 q 0,2.004422 1.59101,2.004422 0.62638,0 1.29034,-0.363301 z"
         style="fill:#0088cc;stroke:none;stroke-width:0.131733px"
         id="path29800" />
    </g>
  </g>
</svg>
