<?xml version="1.0" encoding="UTF-8" standalone="no"?>
<svg
   width="1000"
   height="1000"
   viewBox="0 0 1000 1000"
   fill="none"
   version="1.1"
   id="svg4"
   xmlns:xlink="http://www.w3.org/1999/xlink"
   xmlns="http://www.w3.org/2000/svg"
   xmlns:svg="http://www.w3.org/2000/svg">
  <defs
     id="defs8">
    <linearGradient
       id="linearGradient1601">
      <stop
         style="stop-color:#00bbff;stop-opacity:1"
         offset="0"
         id="stop1597" />
      <stop
         style="stop-color:#004eff;stop-opacity:0.58823532"
         offset="1"
         id="stop1599" />
    </linearGradient>
    <linearGradient
       xlink:href="#linearGradient1601"
       id="linearGradient1603"
       x1="6.9828191"
       y1="4.1786938"
       x2="991.34021"
       y2="990.29553"
       gradientUnits="userSpaceOnUse" />
  </defs>
  <path
     d="m 475.90114,57.93592 c -10.26228,-9.918026 -26.45059,-9.918026 -36.71288,0 -58.55341,56.58979 -141.88276,87.28762 -213.03532,103.59676 -35.21228,8.07056 -66.62338,12.43527 -89.19531,14.77612 -11.27048,1.16894 -20.29557,1.82906 -26.43914,2.1953 -3.07084,0.18194 -5.41832,0.29239 -6.96308,0.35511 -0.77216,0.0321 -1.34354,0.0514 -1.70373,0.062 l -0.38077,0.0122 -0.0722,0.002 c -14.40138,0.34493 -25.898962,12.22045 -25.898751,26.75019 v 203.34577 c 0,103.53619 26.376091,206.73418 86.973691,294.85232 60.73534,88.31506 154.74935,159.86784 287.15727,201.59697 5.15344,1.62464 10.67405,1.62464 15.82748,0 6.57763,-2.07201 13.05762,-4.21894 19.4421,-6.43436 -43.41997,-49.16952 -69.80053,-113.97328 -69.80053,-184.99308 0,-153.68178 123.53587,-278.26555 275.92499,-278.26555 53.2217,0 102.92428,15.19544 145.07501,41.5215 2.35173,-20.89132 3.5,-41.91107 3.5,-62.92654 V 205.68337 c 0,-14.53189 -11.51032,-26.40526 -25.9136,-26.74987 h -0.0573 l -0.37992,-0.0122 c -0.36083,-0.0116 -0.93179,-0.0321 -1.70438,-0.062 -1.54518,-0.062 -3.89266,-0.17124 -6.96392,-0.35511 -6.14464,-0.36625 -15.1695,-1.02637 -26.43999,-2.1953 -22.5728,-2.34085 -53.9858,-6.70556 -89.19808,-14.77633 C 617.78603,145.22354 534.45456,114.5255 475.90114,57.93592 Z M 924.5,714.05377 c 0,130.03778 -104.53099,235.45548 -233.475,235.45548 -128.94398,0 -233.47499,-105.4177 -233.47499,-235.45548 0,-130.03777 104.53101,-235.45547 233.47499,-235.45547 128.94401,0 233.475,105.4177 233.475,235.45547 z M 833.38321,613.2981 c -8.28837,-8.35868 -21.72803,-8.35868 -30.0164,0 L 648.57501,769.40293 578.6832,698.91828 c -8.28836,-8.35868 -21.72803,-8.35868 -30.01638,0 -8.28837,8.35866 -8.28837,21.91233 0,30.271 l 84.89999,85.62017 c 8.28836,8.35867 21.72803,8.35867 30.0164,0 l 169.8,-171.24034 c 8.28835,-8.35866 8.28835,-21.91234 0,-30.27101 z"
     fill="#212121"
     id="path2"
     style="fill:url(#linearGradient1603);fill-opacity:1;stroke:#b71919;stroke-width:0.999997;stroke-opacity:0" />
</svg>
